<?xml version="1.0" standalone="no"?>
<!DOCTYPE svg PUBLIC "-//W3C//DTD SVG 20010904//EN"
 "http://www.w3.org/TR/2001/REC-SVG-20010904/DTD/svg10.dtd">
<svg version="1.0" xmlns="http://www.w3.org/2000/svg"
 width="100.000000pt" height="100.000000pt" viewBox="0 0 1369.000000 1280.000000"
 preserveAspectRatio="xMidYMid meet">

<g transform="translate(0.000000,1280.000000) scale(0.100000,-0.100000)"
fill="#000000" stroke="none">
<path d="M6832 12750 c-336 -43 -664 -198 -905 -429 -203 -195 -334 -399 -417
-650 -58 -174 -71 -247 -77 -434 -6 -185 4 -286 42 -436 l23 -92 -36 -18 c-61
-31 -2628 -1211 -2634 -1211 -3 0 -34 39 -69 88 -211 293 -525 497 -882 574
-150 32 -396 30 -557 -5 -498 -106 -893 -450 -1059 -921 -64 -181 -75 -251
-75 -466 0 -177 3 -206 28 -313 44 -192 105 -335 209 -490 71 -107 221 -266
322 -341 435 -327 1006 -377 1495 -131 52 26 95 42 99 37 3 -5 188 -247 411
-536 223 -290 405 -531 405 -536 0 -5 -181 -245 -402 -532 -221 -288 -408
-531 -415 -541 -12 -16 -19 -14 -101 27 -117 59 -235 101 -359 128 -134 29
-384 31 -528 4 -611 -112 -1078 -604 -1161 -1223 -16 -117 -6 -331 20 -460
119 -576 560 -1007 1153 -1124 36 -8 140 -13 243 -13 158 0 194 3 297 26 351
79 674 297 869 586 36 54 59 80 69 77 8 -3 609 -279 1335 -614 1068 -494 1320
-613 1319 -628 -1 -10 -14 -67 -29 -128 -39 -160 -46 -408 -16 -584 107 -625
569 -1130 1176 -1284 329 -84 705 -57 1008 72 243 104 448 255 612 451 451
542 496 1307 111 1890 -45 67 -54 86 -44 96 7 7 638 597 1401 1312 l1389 1300
94 -68 c176 -128 374 -214 597 -261 121 -26 355 -31 482 -10 358 57 647 207
885 458 497 525 557 1297 146 1898 -213 311 -551 535 -936 620 -111 25 -398
31 -525 11 -244 -37 -465 -131 -672 -284 l-80 -59 -1344 1259 c-739 692 -1368
1283 -1398 1313 l-54 53 63 97 c233 360 309 772 220 1193 -131 620 -620 1100
-1255 1233 -115 24 -374 34 -493 19z m395 -350 c444 -72 832 -401 978 -830
134 -392 69 -820 -174 -1148 -233 -314 -569 -492 -962 -509 -633 -27 -1182
423 -1284 1050 -102 629 287 1237 900 1407 177 48 362 59 542 30z m-1568
-2053 c42 -74 127 -190 190 -259 34 -36 61 -69 61 -72 0 -11 -1701 -2216
-1709 -2216 -9 0 -1222 527 -1229 534 -2 3 3 34 11 69 27 108 47 248 47 336 0
98 -22 260 -49 354 -12 41 -16 69 -10 73 15 9 2653 1224 2659 1224 3 0 16 -19
29 -43z m3795 -1696 c749 -701 1371 -1284 1384 -1295 l23 -22 -47 -70 c-103
-151 -190 -371 -222 -556 l-17 -98 -987 0 -987 0 -7 38 c-33 195 -75 334 -144
477 -279 580 -867 932 -1504 901 -516 -25 -992 -307 -1273 -754 -29 -47 -55
-87 -57 -89 -3 -3 -1015 435 -1063 461 -22 11 11 55 793 1071 449 583 821
1068 828 1078 12 16 20 14 104 -33 532 -294 1199 -242 1688 129 84 63 90 67
108 52 11 -9 632 -589 1380 -1290z m-6044 -882 c316 -138 576 -252 577 -253 1
-1 -135 -181 -303 -399 l-305 -397 -386 501 c-265 345 -383 506 -377 514 5 7
40 50 77 96 38 46 83 107 100 136 18 29 34 53 37 53 2 0 263 -113 580 -251z
m8965 -33 c530 -134 916 -544 1011 -1076 25 -141 23 -357 -4 -487 -79 -367
-290 -672 -608 -875 -125 -80 -322 -155 -478 -183 -115 -20 -337 -20 -452 0
-649 113 -1114 667 -1114 1330 0 337 132 663 368 907 182 189 384 309 625 373
145 39 198 44 382 40 140 -3 188 -8 270 -29z m-5148 -66 c443 -72 828 -396
976 -825 179 -518 4 -1088 -434 -1415 -141 -105 -348 -195 -529 -231 -99 -20
-357 -17 -458 4 -252 54 -463 167 -643 346 -336 335 -454 822 -309 1274 169
525 686 886 1235 861 55 -2 128 -9 162 -14z m-2326 -555 c320 -140 583 -256
584 -257 2 -2 -9 -50 -23 -108 -23 -96 -25 -123 -25 -315 0 -189 2 -220 25
-313 22 -92 23 -104 9 -111 -89 -46 -1153 -501 -1160 -497 -21 13 -705 911
-705 926 0 13 699 930 709 930 2 0 266 -115 586 -255z m5688 -936 c28 -183
111 -397 221 -568 l53 -83 -44 -43 c-24 -25 -654 -615 -1399 -1313 l-1354
-1269 -61 47 c-152 118 -328 214 -493 269 -398 132 -833 97 -1208 -98 l-111
-58 -824 1070 c-453 588 -827 1075 -831 1081 -5 9 154 83 525 245 293 129 537
235 542 237 6 2 29 -29 51 -69 185 -324 508 -585 871 -707 153 -51 265 -70
439 -77 452 -18 849 140 1174 466 236 237 379 507 442 835 l23 116 986 0 986
0 12 -81z m-6900 -424 c165 -214 299 -390 298 -391 -5 -4 -1134 -497 -1148
-501 -12 -3 -31 16 -64 65 -25 39 -75 104 -111 145 l-64 75 387 501 c212 276
389 500 394 499 4 -2 143 -178 308 -393z m1375 -1787 l855 -1111 -51 -56 c-65
-71 -162 -200 -200 -268 l-29 -51 -62 28 c-34 16 -633 292 -1330 614 -698 321
-1271 587 -1274 590 -4 3 4 47 15 98 56 240 54 427 -7 656 l-19 72 47 21 c25
11 300 132 611 268 311 137 570 250 577 250 7 1 397 -499 867 -1111z m2163
-1028 c439 -71 826 -395 973 -815 98 -281 99 -571 4 -838 -148 -410 -475 -701
-909 -808 -104 -26 -321 -36 -438 -20 -418 56 -789 327 -967 706 -247 526
-106 1149 340 1508 153 123 297 196 476 242 171 44 349 52 521 25z"/>
</g>
</svg>
